<?xml version="1.0" encoding="utf-8"?>
<!-- Generator: Adobe Illustrator 21.1.0, SVG Export Plug-In . SVG Version: 6.00 Build 0)  -->
<svg version="1.1" id="Layer_1" xmlns="http://www.w3.org/2000/svg" xmlns:xlink="http://www.w3.org/1999/xlink" x="0px" y="0px"
	 viewBox="0 0 500 500" style="enable-background:new 0 0 500 500;" xml:space="preserve">
<path id="calendar" d="M453,33h-38V10h-30v23H115V10H85v23H47c-21,0-37,16-37,37v383c0,20,16,37,37,37h406c20,0,37-16,37-37V70
	C490,49,474,33,453,33z M453,467H47c-8,0-14-6-14-14V130h434v323C467,461,461,467,453,467z"/>
<g>
	<g>
		<path d="M378.9,297.8c-1.3,0-1.3-1.3,0-2.6c27-10.3,43.7-33.5,43.7-63c0-42.5-37.3-73.3-87.5-73.3c-43.7,0-77.2,23.2-87.5,59.2
			c-1.3,5.1,0,9,2.6,12.9c2.6,3.9,7.7,6.4,11.6,6.4c6.4,0,12.9-5.1,14.2-11.6c6.4-24.4,28.3-39.9,56.6-39.9
			c34.7,0,56.6,19.3,56.6,47.6c0,29.6-24.4,50.2-57.9,50.2h-20.6c-7.7,0-14.2,6.4-14.2,14.2c0,7.7,6.4,14.2,14.2,14.2h21.9
			c42.5,0,68.2,20.6,68.2,54c0,30.9-28.3,52.8-65.6,52.8c-33.5,0-59.2-16.7-65.6-41.2c-1.3-6.4-7.7-11.6-15.4-11.6
			c-5.1,0-9,2.6-11.6,6.4s-3.9,9-2.6,12.9c10.3,37.3,46.3,61.8,95.2,61.8c55.3,0,97.8-34.7,97.8-82.3
			C434.2,329.9,413.6,305.5,378.9,297.8z"/>
		<path d="M154.5,162.7c-7.7,0-15.4,2.6-21.9,6.4c-7.7,5.1-19.3,14.2-30.9,21.9s-21.9,15.4-28.3,19.3c-3.9,2.6-6.4,7.7-6.4,11.6
			c0,5.1,2.6,10.3,7.7,12.9c5.1,2.6,10.3,2.6,14.2-1.3c11.6-7.7,42.5-29.6,50.2-34.7c1.3,0,2.6,0,2.6,1.3v227.7
			c0,9,6.4,15.4,15.4,15.4s15.4-6.4,15.4-15.4V179.4C171.3,170.4,163.5,162.7,154.5,162.7z"/>
	</g>
</g>
</svg>
