<?xml version="1.0" encoding="utf-8"?>
<!-- Generator: Adobe Illustrator 19.0.0, SVG Export Plug-In . SVG Version: 6.00 Build 0)  -->
<svg version="1.1" id="Layer_1" xmlns="http://www.w3.org/2000/svg"  x="0px" y="0px"
	 viewBox="-429 231.3916626 99.6083374 99.6083374" style="enable-background:new -429 231.3916626 99.6083374 99.6083374;"
	 xml:space="preserve">
<style type="text/css">
	.st0{fill:#39414A;}
	.st1{fill:none;stroke:#FFFFFF;stroke-width:2;stroke-miterlimit:10;}
	.st2{fill:none;stroke:#FFFFFF;stroke-width:2;stroke-linecap:round;stroke-miterlimit:10;}
	.st3{fill:#FFFFFF;}
</style>
<circle class="st0" cx="-379.1958313" cy="281.1958313" r="49.8041687"/>
<g>
	<circle id="XMLID_142_" class="st1" cx="-395.5458374" cy="288.2958374" r="9.2999878"/>
	<circle id="XMLID_148_" class="st1" cx="-362.7458496" cy="288.2958374" r="9.2999878"/>
</g>
<g>
	<g>
		<path class="st2" d="M-376.1976624,286.2628784c1.6308289-5.5013123,5.70224-13.3670349,15.651825-13.3670349
			c15.2999878,0,15-13.5,15-13.5"/>
		<path class="st2" d="M-382.1933289,286.2651978c-1.6303711-5.5014038-5.7015381-13.3693542-15.6524963-13.3693542
			c-15.3000183,0-15-13.5-15-13.5"/>
	</g>
</g>
<path class="st2" d="M-372.0458374,288.2958374"/>
<path class="st2" d="M-386.2458496,288.2958374"/>
<path class="st3" d="M-359.7992859,301.9792786c-0.1399231-0.1776123-0.3652344-0.2655334-0.5879517-0.22995
	c-0.566803,0.0904236-1.1220398,0.1362915-1.650177,0.1362915c-3.6372375,0-5.7536316-2.1019287-7.8004761-4.1347351
	c-1.6795959-1.6681213-3.2660828-3.2437439-5.4856262-3.2437439c-1.2011414,0-2.4712524,0.4699707-3.8722839,1.4347839
	c-1.4009094-0.9648132-2.6711121-1.4347839-3.8722534-1.4347839c-2.2197876,0-3.8065491,1.5757141-5.4864502,3.243927
	c-2.0467834,2.0325317-4.1632385,4.1343079-7.7997437,4.134552c-0.5279846,0-1.0832214-0.0458069-1.650177-0.1362915
	c-0.2233887-0.0357361-0.4481201,0.0523376-0.5878906,0.2298584s-0.1726074,0.4167786-0.0856934,0.6253967
	c0.4071655,0.9770813,1.0664368,1.8546753,1.9022522,2.5906067c-0.1902466,0.5582886-0.2879639,1.1403809-0.2879639,1.7369995
	c0,1.675354,0.7885132,3.2552185,2.096344,4.2706909c-0.8806763,1.2516785-1.3308716,2.756073-1.2773438,4.3049927
	c0.0620117,1.79245,0.7949219,3.4784546,2.0637817,4.747406c1.7479858,1.7479858,4.3135681,2.4456482,6.6914368,1.8627625
	c1.1634827,3.5673523,4.4859924,6.0063477,8.2937012,6.0063477c3.8076172,0,7.1302185-2.4389343,8.2937317-6.0063477
	c1.9196777,0.4714355,5.8067017-0.1712341,7.5641174-2.9227905c1.5787964-2.4719238,1.5751953-5.6269836-0.0864258-7.992218
	c1.3077698-1.0154724,2.0965271-2.5954895,2.0965271-4.2708435c0-0.5966187-0.0977478-1.1787109-0.2880554-1.7369385
	c0.8358154-0.7359924,1.4950867-1.6134949,1.9022522-2.5906067
	C-359.6267395,302.3960571-359.6595764,302.1567993-359.7992859,301.9792786z M-379.1958008,310.4374695
	c-2.6268311,0-4.9105225-1.7617798-5.6027832-4.2523193c1.7683411-0.8965454,3.6768799-2.3299866,5.6029663-4.5690308
	c1.6810913,1.9516602,3.4932251,3.4477539,5.3952637,4.4527588c0.0698242,0.0368958,0.139801,0.0717163,0.2097778,0.1072998
	C-374.2799377,308.6713562-376.5658875,310.4374695-379.1958008,310.4374695z"/>
<g id="XMLID_127_">
	<g id="XMLID_2_">
		<path id="XMLID_8_" class="st0" d="M-382.4958191,293.9708557c0-1,6.5999756-0.9000244,6.5999756,0.0999756l-2.2999878,9.4000244
			c0,0.6999817-2.2000122,0.6999817-2.2000122,0L-382.4958191,293.9708557z"/>
	</g>
	<g id="XMLID_7_">
	</g>
</g>
</svg>
