<?xml version="1.0" encoding="utf-8"?>
<!-- Generator: Adobe Illustrator 19.0.0, SVG Export Plug-In . SVG Version: 6.00 Build 0)  -->
<svg version="1.1" id="Layer_1" xmlns="http://www.w3.org/2000/svg"  x="0px" y="0px"
	 viewBox="-429 231.3916626 99.6083374 99.6083374" style="enable-background:new -429 231.3916626 99.6083374 99.6083374;"
	 xml:space="preserve">
<style type="text/css">
	.st0{fill:#39414A;}
	.st1{fill:none;stroke:#FFFFFF;stroke-width:2;stroke-miterlimit:10;}
	.st2{fill:none;stroke:#FFFFFF;stroke-width:2;stroke-linecap:round;stroke-miterlimit:10;}
	.st3{fill:#FFFFFF;}
</style>
<circle class="st0" cx="-379.1958313" cy="281.1958313" r="49.8041687"/>
<g>
	<circle id="XMLID_142_" class="st1" cx="-395.5458374" cy="288.2958374" r="9.2999878"/>
	<circle id="XMLID_148_" class="st1" cx="-362.7458496" cy="288.2958374" r="9.2999878"/>
</g>
<g>
	<g>
		<path class="st2" d="M-376.1976624,286.2628784c1.6308289-5.5013123,5.70224-13.3670349,15.651825-13.3670349
			c15.2999878,0,15-13.5,15-13.5"/>
		<path class="st2" d="M-382.1933289,286.2651978c-1.6303711-5.5014038-5.7015381-13.3693542-15.6524963-13.3693542
			c-15.3000183,0-15-13.5-15-13.5"/>
	</g>
</g>
<path class="st2" d="M-372.0458374,288.2958374"/>
<path class="st2" d="M-386.2458496,288.2958374"/>
<g id="XMLID_127_">
	<g id="XMLID_2_">
		<path id="XMLID_8_" class="st3" d="M-382.4958191,293.9708557c0-1,6.5999756-0.9000244,6.5999756,0.0999756l-2.2999878,9.4000244
			c0,0.6999817-2.2000122,0.6999817-2.2000122,0L-382.4958191,293.9708557z"/>
	</g>
	<g id="XMLID_7_">
	</g>
</g>
<g>
	<path class="st3" d="M-342.3703003,274.0049744c0.2070313-0.403595,0.3648071-1.0570068-0.0550537-1.8803406
		c-0.1014709-0.1989136-0.2366028-0.3829041-0.4020996-0.5484009c-1.2887268-1.2887268-4.3986816-1.2458191-6.0718384-1.1162415
		c0.1189575-0.6864319-0.0827942-1.4179993-0.6116943-1.9468994c-0.5291138-0.5291138-1.2606812-0.730072-1.9474182-0.6122131
		c0.1299133-1.6721497,0.172699-4.7830505-1.1161194-6.0718384c-0.1654358-0.1654358-0.3502808-0.3006287-0.5484619-0.4021606
		c-0.8233337-0.4197388-1.4771423-0.2615662-1.8808289-0.0553894c-1.100769,0.5646362-1.5957031,2.1248779-1.791626,2.9903259
		c-0.865387,0.1958618-2.4251099,0.6902466-2.9904785,1.7917786c-0.2064209,0.4039307-0.3644409,1.0574951,0.0558777,1.8803711
		c0.100647,0.1990356,0.2364502,0.3831482,0.401947,0.548645c1.2888184,1.2887878,4.399292,1.245636,6.0720215,1.1165771
		c-0.1190186,0.6863403,0.0827942,1.4179688,0.6118469,1.9470215c0.5289001,0.5289001,1.2601318,0.7301941,1.9468994,0.6116943
		c-0.1294556,1.6723633-0.1724243,4.78302,1.1163025,6.0717773c0.1654968,0.1654968,0.3500061,0.3000793,0.548584,0.401886
		c0.822937,0.4202576,1.4769592,0.2618713,1.8799744,0.0554504c1.100708-0.5645447,1.5958862-2.125061,1.791748-2.990448
		C-344.4955139,275.6002197-342.935791,275.1057129-342.3703003,274.0049744z M-351.601593,270.6027832
		c-0.2889404-0.2889404-0.2893372-0.7590942-0.0006104-1.0478516c0.2889404-0.2889404,0.7591858-0.2892761,1.0484619,0
		c0.2889404,0.2889404,0.2885437,0.7584534-0.0007324,1.0477295
		C-350.8428955,270.8918762-351.3126526,270.8917236-351.601593,270.6027832z"/>
</g>
</svg>
