<?xml version="1.0" encoding="utf-8"?>
<!-- Generator: Adobe Illustrator 19.0.0, SVG Export Plug-In . SVG Version: 6.00 Build 0)  -->
<svg version="1.1" id="Layer_1" xmlns="http://www.w3.org/2000/svg"  x="0px" y="0px"
	 viewBox="-429 231.3916626 99.6083374 99.6083374" style="enable-background:new -429 231.3916626 99.6083374 99.6083374;"
	 xml:space="preserve">
<style type="text/css">
	.st0{fill:#39414A;}
	.st1{fill:none;stroke:#FFFFFF;stroke-width:2;stroke-miterlimit:10;}
	.st2{fill:none;stroke:#FFFFFF;stroke-width:2;stroke-linecap:round;stroke-miterlimit:10;}
	.st3{fill:#FFFFFF;}
</style>
<circle class="st0" cx="-379.1958313" cy="281.1958313" r="49.8041687"/>
<g>
	<circle id="XMLID_142_" class="st1" cx="-395.5458374" cy="288.2958374" r="9.2999878"/>
	<circle id="XMLID_148_" class="st1" cx="-362.7458496" cy="288.2958374" r="9.2999878"/>
</g>
<g>
	<g>
		<path class="st2" d="M-376.1976624,286.2628784c1.6308289-5.5013123,5.70224-13.3670349,15.651825-13.3670349
			c15.2999878,0,15-13.5,15-13.5"/>
		<path class="st2" d="M-382.1933289,286.2651978c-1.6303711-5.5014038-5.7015381-13.3693542-15.6524963-13.3693542
			c-15.3000183,0-15-13.5-15-13.5"/>
	</g>
</g>
<g id="XMLID_127_">
	<g id="XMLID_2_">
		<path id="XMLID_8_" class="st3" d="M-382.4958191,293.9708557c0-1,6.5999756-0.9000244,6.5999756,0.0999756l-2.2999878,9.4000244
			c0,0.6999817-2.2000122,0.6999817-2.2000122,0L-382.4958191,293.9708557z"/>
	</g>
	<g id="XMLID_7_">
	</g>
</g>
<path class="st2" d="M-372.0458374,288.2958374"/>
<path class="st2" d="M-386.2458496,288.2958374"/>
<g>
	<path class="st3" d="M-368.9942932,308.782135c0.3678589-0.0295105,0.6723022-0.0830994,0.9805908-0.1583862
		c1.2962036-0.3166199,2.1837769-1.4677429,2.2657471-2.7995605c0.000946-0.0153198,0.0019226-0.0307007,0.0029602-0.0461426
		c0.0783386-1.1686707-0.6140747-2.2543945-1.7323303-2.6028442c-0.549469-0.1712036-1.0069275-0.2944641-1.5874023-0.3253784
		c-7.5447693-0.4035645-29.8009949,2.6409912-29.7913513,3.3421326
		C-398.8494873,306.9317932-376.524292,309.3724365-368.9942932,308.782135z M-363.6949463,305.6933899
		c-0.1342468,1.8738098,1.0271912,3.6647644,2.8519592,4.1113281c1.5170898,0.3713074,3.4465637,0.1233521,5.7218933-0.8993225
		c3.9208374-1.7602234,7.1630554-0.8956909,7.5150757-0.4326782c-1.3953552-2.7453003-5.8063965-10.4179993-13.8998413-6.1201477
		c-1.2352295,0.6559448-2.0724487,1.8829651-2.1842346,3.2770996
		C-363.691803,305.651001-363.6934204,305.6722412-363.6949463,305.6933899z"/>
</g>
</svg>
