<?xml version="1.0" encoding="utf-8"?>
<!-- Generator: Adobe Illustrator 19.2.1, SVG Export Plug-In . SVG Version: 6.00 Build 0)  -->
<svg version="1.1" id="Layer_1" xmlns="http://www.w3.org/2000/svg"  x="0px" y="0px"
	 viewBox="0 0 99.6083374 99.6083374" style="enable-background:new 0 0 99.6083374 99.6083374;" xml:space="preserve">
<style type="text/css">
	.st0{fill:#39414A;}
	.st1{fill:none;stroke:#FFFFFF;stroke-width:2;stroke-miterlimit:10;}
	.st2{fill:none;stroke:#FFFFFF;stroke-width:2;stroke-linecap:round;stroke-miterlimit:10;}
	.st3{fill:#FFFFFF;}
</style>
<circle class="st0" cx="49.8041687" cy="49.8041687" r="49.8041687"/>
<g>
	<circle id="XMLID_142_" class="st1" cx="33.4541626" cy="56.9041748" r="9.2999878"/>
	<circle id="XMLID_148_" class="st1" cx="66.2541504" cy="56.9041748" r="9.2999878"/>
</g>
<g>
	<g>
		<path class="st2" d="M52.8023376,54.8712158c1.6308289-5.5013123,5.70224-13.3670349,15.651825-13.3670349
			c15.2999878,0,15-13.5,15-13.5"/>
		<path class="st2" d="M46.8066711,54.8735352C45.1763,49.3721313,41.1051331,41.5041809,31.1541748,41.5041809
			c-15.3000183,0-15-13.5-15-13.5"/>
	</g>
</g>
<g id="XMLID_127_">
	<g id="XMLID_2_">
		<path id="XMLID_8_" class="st3" d="M46.5041809,62.5791931c0-1,6.5999756-0.9000244,6.5999756,0.0999756l-2.2999878,9.4000244
			c0,0.6999817-2.2000122,0.6999817-2.2000122,0L46.5041809,62.5791931z"/>
	</g>
	<g id="XMLID_7_">
	</g>
</g>
<g>
	<g>
		<path class="st3" d="M36.254982,58.5644836l6.560173,3.7879906c0.182003,0.1040039,0.4133186,0.0412445,0.5182152-0.1389656
			l0.1891747-0.3281441c0.1049004-0.1802101,0.042141-0.4124184-0.1380692-0.5173187l-6.5610695-3.7879906
			c-0.1811066-0.1049004-0.4133186-0.0421371-0.5173187,0.1380692l-0.1891785,0.3281441
			C36.0120125,58.227375,36.0738754,58.4595871,36.254982,58.5644836z"/>
		<path class="st3" d="M30.5734425,68.4060898l6.5610714,3.788887c0.1811066,0.1040039,0.4133186,0.0421448,0.5173187-0.1380692
			l0.1891747-0.3272476c0.1048965-0.1802063,0.0430374-0.4133148-0.1380692-0.5173187l-6.5610714-3.7879868
			c-0.1811066-0.1049042-0.4133167-0.0421448-0.5173187,0.1380692l-0.1891766,0.3281403
			C30.3295765,68.068985,30.3914413,68.3011932,30.5734425,68.4060898z"/>
		<path class="st3" d="M53.7093315,73.0350647l-13.1311073-6.8058395l1.7653389-3.0572853
			c0.1040001-0.1802101,0.042141-0.4133186-0.1371765-0.5173187l-5.9065742-3.4096413
			c-0.1802101-0.1040039-0.4133186-0.0412407-0.5173187,0.1389656l-4.1672382,7.2173576
			c-0.1031055,0.1802139-0.0412426,0.4133148,0.1389675,0.5173187l5.9056778,3.4087448
			c0.1802101,0.1048965,0.4133186,0.0421371,0.5164223-0.1380692l1.7662354-3.0572891l12.458683,7.969574
			c0.1757278,0.1120682,0.4043541,0.0564804,0.5083542-0.1246262l0.94767-1.6407166
			C53.9603691,73.3578262,53.8940239,73.1318893,53.7093315,73.0350647z"/>
		<path class="st3" d="M55.7803993,73.9934921l-0.6553917-0.3783569c-0.1793137-0.1048965-0.4133148-0.0421371-0.5173187,0.1380768
			l-1.1377411,1.9679565c-0.1031036,0.1802139-0.0412407,0.4133224,0.1389694,0.5164261l0.6553879,0.3783493
			c0.1802101,0.1049042,0.4124222,0.0430374,0.5173187-0.1380692l1.1368484-1.9679642
			C56.0233688,74.3297043,55.9615021,74.0965958,55.7803993,73.9934921z"/>
		<path class="st3" d="M41.6038933,76.3290482h-0.789875c0.0995216-0.1111755,0.1658669-0.254631,0.1658669-0.416008v-0.6240158
			c0-0.3433838-0.2806244-0.6249008-0.624012-0.6249008H27.8613319c-0.3442822,0-0.6249065,0.281517-0.6249065,0.6249008v0.6240158
			c0,0.161377,0.0663452,0.3048325,0.1667595,0.416008h-0.7907696c-0.3451786,0-0.6249065,0.2824173-0.6249065,0.6258011v2.4987259
			c0,0.3433838,0.2806244,0.6249084,0.6249065,0.6249084H41.60569c0.3451767,0,0.6240082-0.281517,0.6240082-0.6249084v-2.5005188
			C42.2296982,76.6114655,41.9490738,76.3290482,41.6038933,76.3290482z"/>
	</g>
</g>
</svg>
