<?xml version="1.0" encoding="utf-8"?>
<!-- Generator: Adobe Illustrator 19.0.0, SVG Export Plug-In . SVG Version: 6.00 Build 0)  -->
<svg version="1.1" id="Layer_1" xmlns="http://www.w3.org/2000/svg"  x="0px" y="0px"
	 viewBox="-459.1541748 231.3958282 99.6083374 99.6083374"
	 style="enable-background:new -459.1541748 231.3958282 99.6083374 99.6083374;" xml:space="preserve">
<style type="text/css">
	.st0{fill:#39414A;}
	.st1{fill:none;stroke:#FFFFFF;stroke-width:2;stroke-miterlimit:10;}
	.st2{fill:none;stroke:#FFFFFF;stroke-width:2;stroke-linecap:round;stroke-miterlimit:10;}
	.st3{fill:#FFFFFF;}
</style>
<circle class="st0" cx="-409.3500061" cy="281.1999817" r="49.8041687"/>
<g>
	<circle id="XMLID_142_" class="st1" cx="-425.7000122" cy="288.2999878" r="9.2999992"/>
	<circle id="XMLID_148_" class="st1" cx="-392.9000244" cy="288.2999878" r="9.2999992"/>
</g>
<g>
	<g>
		<path class="st2" d="M-406.3518372,286.2670288c1.6308289-5.5013123,5.70224-13.3670349,15.651825-13.3670349
			c15.2999878,0,15-13.5,15-13.5"/>
		<path class="st2" d="M-412.3475037,286.2693481c-1.6303711-5.5014038-5.7015381-13.3693542-15.6524963-13.3693542
			c-15.3000183,0-15-13.5-15-13.5"/>
	</g>
</g>
<g id="XMLID_127_">
	<g id="XMLID_2_">
		<path id="XMLID_8_" class="st3" d="M-412.6499939,293.9750061c0-1,6.5999756-0.9000244,6.5999756,0.0999756l-2.2999878,9.4000244
			c0,0.6999817-2.2000122,0.6999817-2.2000122,0L-412.6499939,293.9750061z"/>
	</g>
	<g id="XMLID_7_">
	</g>
</g>
<circle class="st3" cx="-425.7000122" cy="288.3500061" r="6.1666665"/>
<circle class="st3" cx="-392.9000244" cy="288.3500061" r="6.1666665"/>
<line class="st2" x1="-435" y1="287.9333191" x2="-439.9583435" y2="282.9750061"/>
<line class="st2" x1="-383.6000061" y1="287.9333191" x2="-378.6416931" y2="282.9750061"/>
<path class="st2" d="M-416.4000244,288.2999878c0,0,3.1500244-2.0333252,7.0499573-2.0333252
	c3.5167236,0,7.1500549,2.0333252,7.1500549,2.0333252"/>
</svg>
