<?xml version="1.0" encoding="utf-8"?>
<!-- Generator: Adobe Illustrator 19.0.0, SVG Export Plug-In . SVG Version: 6.00 Build 0)  -->
<svg version="1.1" id="Layer_1" xmlns="http://www.w3.org/2000/svg"  x="0px" y="0px"
	 viewBox="-429 231.3916626 99.6083374 99.6083374" style="enable-background:new -429 231.3916626 99.6083374 99.6083374;"
	 xml:space="preserve">
<style type="text/css">
	.st0{fill:#39414A;}
	.st1{fill:none;stroke:#FFFFFF;stroke-width:2;stroke-miterlimit:10;}
	.st2{fill:none;stroke:#FFFFFF;stroke-width:2;stroke-linecap:round;stroke-miterlimit:10;}
	.st3{fill:#FFFFFF;}
</style>
<circle class="st0" cx="-379.1958313" cy="281.1958313" r="49.8041687"/>
<g>
	<circle id="XMLID_142_" class="st1" cx="-395.5458374" cy="288.2958374" r="9.2999878"/>
	<circle id="XMLID_148_" class="st1" cx="-362.7458496" cy="288.2958374" r="9.2999878"/>
</g>
<g>
	<g>
		<path class="st2" d="M-376.1976624,286.2628784c1.6308289-5.5013123,5.70224-13.3670349,15.651825-13.3670349
			c15.2999878,0,15-13.5,15-13.5"/>
		<path class="st2" d="M-382.1933289,286.2651978c-1.6303711-5.5014038-5.7015381-13.3693542-15.6524963-13.3693542
			c-15.3000183,0-15-13.5-15-13.5"/>
	</g>
</g>
<path class="st2" d="M-372.0458374,288.2958374"/>
<path class="st2" d="M-386.2458496,288.2958374"/>
<g id="XMLID_127_">
	<g id="XMLID_2_">
		<path id="XMLID_8_" class="st3" d="M-382.4958191,293.9708557c0-1,6.5999756-0.9000244,6.5999756,0.0999756l-2.2999878,9.4000244
			c0,0.6999817-2.2000122,0.6999817-2.2000122,0L-382.4958191,293.9708557z"/>
	</g>
	<g id="XMLID_7_">
	</g>
</g>
<circle class="st3" cx="-362.7458496" cy="288.2958374" r="6.5416665"/>
<line class="st2" x1="-353.4458618" y1="288.2958374" x2="-353.4458618" y2="313.0583191"/>
</svg>
