<?xml version="1.0" encoding="utf-8"?>
<!-- Generator: Adobe Illustrator 19.0.0, SVG Export Plug-In . SVG Version: 6.00 Build 0)  -->
<svg version="1.1" id="Layer_1" xmlns="http://www.w3.org/2000/svg"  x="0px" y="0px"
	 viewBox="-775.6188965 87.5 512 512" style="enable-background:new -775.6188965 87.5 512 512;" xml:space="preserve">
<style type="text/css">
	.st0{fill:#46A585;}
	.st1{fill:#1ECD97;}
	.st2{fill:#FFFFFF;}
</style>
<g>
	<path class="st0" d="M-775.6188965,87.5v512h512v-512H-775.6188965z"/>
</g>
<polygon class="st1" points="-775.6188965,343.5 -614.8712158,182.7523193 -515.1212158,282.5023193 -462.6212158,230.0023193
	-263.6188965,429.0046387 -263.6188965,599.5 -775.6188965,599.5 "/>
<g>
	<path class="st2" d="M-610.5200195,492.7958984c0,6.9960938-0.8598633,13.3017578-2.5800781,18.9199219
		c-1.7197266,5.6201172-4.2866211,10.40625-7.6967773,14.3623047c-3.4116211,3.9560547-7.6689453,6.9951172-12.7709961,9.1162109
		c-5.1035156,2.1201172-11.0375977,3.1816406-17.8022461,3.1816406c-3.0957031,0-6.1352539-0.1865234-9.1157227-0.5585938
		c-2.9819336-0.3740234-6.105957-0.9599609-9.3740234-1.7636719l1.2041016-13.7597656
		c0.1142578-1.2607422,0.5869141-2.2792969,1.4189453-3.0527344c0.8305664-0.7744141,2.0493164-1.1611328,3.6547852-1.1611328
		c0.9741211,0,2.2495117,0.2011719,3.8271484,0.6015625c1.5761719,0.4023438,3.5688477,0.6025391,5.9770508,0.6025391
		c3.2680664,0,6.1621094-0.4736328,8.6860352-1.4189453c2.5219727-0.9462891,4.6289063-2.4511719,6.3208008-4.515625
		c1.6904297-2.0634766,2.9672852-4.7431641,3.8271484-8.0410156c0.8598633-3.2958984,1.2900391-7.2949219,1.2900391-11.9970703
		v-80.6679688h23.1337891V492.7958984z"/>
	<path class="st2" d="M-561.5004883,493.2255859V537h-23.1337891V412.6435547h40.5058594
		c8.3125,0,15.5083008,0.9755859,21.5859375,2.9248047c6.0766602,1.9492188,11.0942383,4.6728516,15.050293,8.1699219
		s6.8798828,7.6835938,8.7719727,12.5556641c1.8920898,4.8740234,2.8378906,10.2060547,2.8378906,15.9960938
		c0,6.0195313-1.0039063,11.5390625-3.0102539,16.5546875c-2.0073242,5.0175781-5.0170898,9.3310547-9.0297852,12.9433594
		c-4.0136719,3.6123047-9.0297852,6.421875-15.0498047,8.4277344c-6.0200195,2.0078125-13.0722656,3.0097656-21.15625,3.0097656
		H-561.5004883z M-561.5004883,475.1660156h17.3720703c4.2421875,0,7.9404297-0.5292969,11.0942383-1.5908203
		c3.1523438-1.0605469,5.7617188-2.5800781,7.8256836-4.5585938c2.0639648-1.9775391,3.6123047-4.3857422,4.644043-7.2236328
		c1.0322266-2.8378906,1.5483398-6.0048828,1.5483398-9.5029297c0-3.3242188-0.5161133-6.3349609-1.5483398-9.0302734
		c-1.0317383-2.6943359-2.5800781-4.9873047-4.644043-6.8798828c-2.0639648-1.8916016-4.6733398-3.3388672-7.8256836-4.3427734
		c-3.1538086-1.0029297-6.8520508-1.5048828-11.0942383-1.5048828h-17.3720703V475.1660156z"/>
	<path class="st2" d="M-420.8041992,519.9716797c5.2163086,0,9.7607422-0.4726563,13.6308594-1.4189453
		c3.8701172-0.9453125,7.5532227-2.2490234,11.0507813-3.9130859v-22.6171875h-15.565918
		c-1.4912109,0-2.6660156-0.4160156-3.5258789-1.2470703s-1.2900391-1.8496094-1.2900391-3.0537109v-13.0712891h41.3662109
		v50.3095703c-3.1538086,2.2939453-6.4365234,4.2861328-9.847168,5.9765625
		c-3.4116211,1.6923828-7.0522461,3.0830078-10.921875,4.171875c-3.8701172,1.0898438-8.0126953,1.9052734-12.4272461,2.4501953
		c-4.4155273,0.5449219-9.1738281,0.8173828-14.2758789,0.8173828c-9.0595703,0-17.4013672-1.5761719-25.0258789-4.7294922
		c-7.6259766-3.1533203-14.2197266-7.5390625-19.7802734-13.1582031
		c-5.5615234-5.6181641-9.9047852-12.3261719-13.0288086-20.1240234c-3.1254883-7.796875-4.6870117-16.3105469-4.6870117-25.5419922
		c0-9.3447266,1.5185547-17.9160156,4.5581055-25.7138672c3.0380859-7.796875,7.3530273-14.5048828,12.9428711-20.1240234
		c5.5898438-5.6181641,12.3691406-9.9765625,20.3388672-13.0722656c7.96875-3.0957031,16.9125977-4.6445313,26.8320313-4.6445313
		c10.1479492,0,18.9335938,1.5058594,26.3588867,4.515625c7.4243164,3.0097656,13.7172852,6.9228516,18.8774414,11.7392578
		l-6.7080078,10.4912109c-1.3198242,2.1220703-3.0678711,3.1826172-5.2460938,3.1826172
		c-1.3759766,0-2.7817383-0.4589844-4.2143555-1.3759766c-1.8354492-1.0888672-3.7124023-2.1787109-5.6328125-3.2685547
		c-1.9213867-1.0878906-4.0419922-2.0341797-6.3637695-2.8378906c-2.3222656-0.8017578-4.9316406-1.4619141-7.8261719-1.9775391
		c-2.8959961-0.5166016-6.2348633-0.7744141-10.019043-0.7744141c-6.1357422,0-11.6826172,1.0322266-16.6411133,3.0957031
		c-4.9594727,2.0644531-9.1884766,5.0175781-12.6850586,8.8583984c-3.4975586,3.8417969-6.1918945,8.4580078-8.0839844,13.8457031
		c-1.8916016,5.3896484-2.8378906,11.4101563-2.8378906,18.0605469c0,7.1669922,1.0024414,13.5449219,3.0102539,19.1347656
		c2.0058594,5.5898438,4.815918,10.3066406,8.4277344,14.1464844c3.6123047,3.8417969,7.9121094,6.78125,12.8999023,8.8154297
		C-432.15625,518.9550781-426.7099609,519.9716797-420.8041992,519.9716797z"/>
</g>
</svg>
