<?xml version="1.0" encoding="utf-8"?>
<!-- Generator: Adobe Illustrator 19.0.0, SVG Export Plug-In . SVG Version: 6.00 Build 0)  -->
<svg version="1.1" id="Layer_1" xmlns="http://www.w3.org/2000/svg"  x="0px" y="0px"
	 viewBox="-1222.7116699 137.5 512 512" style="enable-background:new -1222.7116699 137.5 512 512;" xml:space="preserve">
<style type="text/css">
	.st0{fill:#C4C4C4;}
	.st1{fill:#919191;}
	.st2{fill:#1ECD97;}
	.st3{enable-background:new    ;}
	.st4{fill:#FFFFFF;}
</style>
<g>
	<path class="st0" d="M-1222.7116699,137.5v512h512v-512H-1222.7116699z"/>
</g>
<g>
	<rect x="-1189.7093506" y="281.9976807" class="st1" width="58.9953613" height="58.9953613"/>
	<rect x="-1060.7093506" y="281.9976807" class="st1" width="58.9953613" height="58.9953613"/>
	<rect x="-931.7093506" y="281.9976807" class="st1" width="58.9953613" height="58.9953613"/>
	<rect x="-802.7093506" y="281.9976807" class="st1" width="58.9953613" height="58.9953613"/>
</g>
<g>
	<rect x="-1189.7093506" y="394.5" class="st1" width="58.9953613" height="58.9953613"/>
	<rect x="-1060.7093506" y="394.5" class="st1" width="58.9953613" height="58.9953613"/>
	<rect x="-931.7093506" y="394.5" class="st1" width="58.9953613" height="58.9953613"/>
	<rect x="-802.7093506" y="394.5" class="st1" width="58.9953613" height="58.9953613"/>
</g>
<polygon class="st2" points="-1222.7116699,393.5 -1061.9639893,232.7523193 -962.2139893,332.5023193 -909.7139893,280.0023193
	-710.7116699,479.0046387 -710.7116699,649.5 -1222.7116699,649.5 "/>
<g>
	<rect x="-1189.7093506" y="166.9976807" class="st1" width="58.9953613" height="58.9953613"/>
	<rect x="-1060.7093506" y="166.9976807" class="st1" width="58.9953613" height="58.9953613"/>
	<rect x="-931.7093506" y="166.9976807" class="st1" width="58.9953613" height="58.9953613"/>
	<rect x="-802.7093506" y="166.9976807" class="st1" width="58.9953613" height="58.9953613"/>
</g>
<g class="st3">
	<path class="st4" d="M-1108.4370117,545.1181641V587h-29.0683594V461.6982422h44.2041016
		c8.8286133,0,16.4111328,1.046875,22.7470703,3.1386719c6.3344727,2.09375,11.5522461,4.9746094,15.6518555,8.6435547
		c4.0986328,3.6689453,7.1235352,7.9970703,9.0732422,12.9853516c1.9482422,4.9882813,2.9238281,10.3779297,2.9238281,16.1679688
		c0,6.25-1.0039063,11.9833984-3.0097656,17.2001953c-2.0078125,5.2177734-5.0742188,9.6894531-9.2021484,13.4160156
		c-4.1279297,3.7275391-9.3603516,6.6367188-15.6948242,8.7285156c-6.3359375,2.09375-13.8325195,3.1396484-22.4892578,3.1396484
		H-1108.4370117z M-1108.4370117,523.1884766h15.1357422c7.5678711,0,13.0141602-1.8066406,16.3398438-5.4189453
		c3.324707-3.6113281,4.9882813-8.65625,4.9882813-15.1357422c0-2.8662109-0.4301758-5.4746094-1.2900391-7.8261719
		c-0.8598633-2.3496094-2.1645508-4.3710938-3.9130859-6.0625c-1.7495117-1.6904297-3.9560547-2.9951172-6.6220703-3.9130859
		c-2.6660156-0.9160156-5.8344727-1.3759766-9.5029297-1.3759766h-15.1357422V523.1884766z"/>
	<path class="st4" d="M-1009.2817993,461.8701172c0.8598633,0.1152344,1.6337891,0.3300781,2.3217773,0.6445313
		c0.6879883,0.3164063,1.3466797,0.7607422,1.9780273,1.3330078c0.6303711,0.5742188,1.3466797,1.3476563,2.1499023,2.3222656
		l59.512207,75.25c-0.2299805-2.4082031-0.4018555-4.7431641-0.5161133-7.0087891
		c-0.1152344-2.2646484-0.171875-4.3994141-0.171875-6.4072266v-66.3056641h25.6279297V587h-15.1357422
		c-2.2363281,0-4.1279297-0.34375-5.6762695-1.0322266c-1.5478516-0.6875-3.0395508-1.9482422-4.4716797-3.7841797
		l-59.0820313-74.6474609c0.171875,2.1796875,0.3144531,4.3144531,0.4296875,6.4072266
		c0.1142578,2.0927734,0.1723633,4.0566406,0.1723633,5.890625V587h-25.6283569V461.6982422h15.3080444
		C-1011.203186,461.6982422-1010.1416626,461.7558594-1009.2817993,461.8701172z"/>
	<path class="st4" d="M-838.7446899,566.015625c4.0126953,0,7.5678711-0.34375,10.6640625-1.03125
		c3.0961914-0.6884766,6.0200195-1.6044922,8.7719727-2.7519531v-19.0068359h-12.3837891
		c-1.8359375,0-3.2680664-0.4863281-4.300293-1.4619141c-1.0317383-0.9736328-1.5478516-2.2060547-1.5478516-3.6972656v-15.9960938
		h44.5478516v52.8896484c-3.2114258,2.3515625-6.5507813,4.3730469-10.019043,6.0634766
		c-3.4692383,1.6914063-7.1674805,3.0820313-11.09375,4.1708984c-3.9277344,1.0898438-8.1137695,1.8916016-12.5561523,2.4072266
		c-4.4438477,0.5166016-9.2167969,0.7744141-14.3188477,0.7744141c-9.1738281,0-17.659668-1.6191406-25.4560547-4.859375
		c-7.7978516-3.2382813-14.5488281-7.7099609-20.2529297-13.4160156
		c-5.7055664-5.7041016-10.1777344-12.4697266-13.4160156-20.2958984
		c-3.2397461-7.8261719-4.8588867-16.3251953-4.8588867-25.4990234c0-9.34375,1.5478516-17.9306641,4.644043-25.7568359
		c3.0957031-7.8261719,7.5249023-14.5771484,13.2866211-20.2529297c5.762207-5.6757813,12.7280273-10.0898438,20.8979492-13.2441406
		c8.1704102-3.1523438,17.2998047-4.7294922,27.3911133-4.7294922c5.2163086,0,10.1186523,0.4296875,14.7060547,1.2900391
		c4.5864258,0.859375,8.8149414,2.0351563,12.6850586,3.5253906c3.8701172,1.4921875,7.4091797,3.2685547,10.6210938,5.3320313
		c3.2099609,2.0644531,6.0761719,4.2998047,8.6000977,6.7080078l-8.4282227,12.8144531
		c-0.8037109,1.2041016-1.7631836,2.1494141-2.8808594,2.8378906c-1.1181641,0.6875-2.3369141,1.0322266-3.6552734,1.0322266
		c-1.7197266,0-3.4975586-0.5722656-5.3320313-1.7207031c-2.293457-1.3759766-4.4584961-2.5644531-6.4926758-3.5683594
		c-2.0361328-1.0029297-4.1147461-1.8193359-6.2353516-2.4511719c-2.121582-0.6298828-4.3574219-1.0888672-6.7080078-1.3759766
		c-2.3515625-0.2861328-4.987793-0.4296875-7.9116211-0.4296875c-5.4477539,0-10.3496094,0.9599609-14.7060547,2.8808594
		c-4.3579102,1.9208984-8.0708008,4.6298828-11.137207,8.1269531c-3.0678711,3.4980469-5.4326172,7.6972656-7.0947266,12.5986328
		c-1.6635742,4.9023438-2.4941406,10.3632813-2.4941406,16.3828125c0,6.6523438,0.9165039,12.5566406,2.7519531,17.7167969
		c1.8339844,5.1591797,4.3710938,9.5175781,7.6108398,13.0712891c3.2387695,3.5556641,7.0805664,6.2646484,11.5239258,8.1269531
		C-848.8789673,565.0849609-844.0200806,566.015625-838.7446899,566.015625z"/>
</g>
</svg>
