<?xml version="1.0" encoding="utf-8"?>
<!-- Generator: Adobe Illustrator 19.2.1, SVG Export Plug-In . SVG Version: 6.00 Build 0)  -->
<svg version="1.1" id="Layer_1" xmlns="http://www.w3.org/2000/svg"  x="0px" y="0px"
	 viewBox="0 0 512 512" style="enable-background:new 0 0 512 512;" xml:space="preserve">
<style type="text/css">
	.st0{fill:#6646A3;}
	.st1{fill:#FFFFFF;stroke:#FFFFFF;stroke-width:7;stroke-miterlimit:10;}
	.st2{fill:#FFFFFF;}
</style>
<g>
	<path class="st0" d="M0,0v512h512V0H0z"/>
</g>
<path class="st1" d="M323.5,97.8H123.4v318.2h267V171.8L323.5,97.8z M373.1,167.6h-44.8v-49.4L373.1,167.6z M380.5,406.1h-247V107.8
	h185.6l0,68l61.4-0.1l0,0V406.1z"/>
<rect x="201.6" y="319.5" class="st2" width="178.9" height="65"/>
<g>
	<path class="st0" d="M260.9,329.1v6.4h-19.2v12.8h16.2v6.5h-16.2v17.7h-8.1v-43.4H260.9z"/>
	<path class="st0" d="M276.3,372.5h-8.1v-43.4h8.1V372.5z"/>
	<path class="st0" d="M294.1,365.8h17.4v6.7H286v-43.4h8.1V365.8z"/>
	<path class="st0" d="M344.4,329.1v6.4h-19.2v12h15.2v6.2h-15.2V366h19.2v6.5H317v-43.4H344.4z"/>
</g>
<g>
	<path class="st2" d="M213.4,192.8l36.5,36.5c4.6,0.3,7.6-2.2,5.4-4.4l-42.1-42.1l-25,25.5l15.7,15.7c0,0,24.3,24.3,24.3,24.3
		l4.9-4.9l-8.5-8.5l9.1-9.1l-5.2-4.6l-8.8,8.8l-8.5-8.5l9.1-9.1l-5-4.8l-9,9l-8.5-8.5L213.4,192.8L213.4,192.8z"/>
	<path class="st2" d="M261.5,281.6c0,0,29.2,29.2,29.2,29.2l25.1-25.4L275.4,245c-1.4-1.4-3.5-1.4-4.9,0c-1.4,1.4-1.4,3.5,0,4.9
		l35.6,35.6L290.7,301l-8.5-8.5l7.9-7.9l-4.9-4.9l-7.9,7.9l-8.5-8.5l7.9-7.9l-4.9-4.9l-7.9,7.9l-9.2-9.2c-1.4-1.4-3.5-1.4-4.9,0
		c-1.4,1.4-1.4,3.5,0,4.9L261.5,281.6L261.5,281.6z"/>
	<path class="st2" d="M224.9,295.9C224.9,295.9,225,295.9,224.9,295.9c0.1,0,0.1-0.1,0.1-0.1c0.1,0,0.1-0.1,0.2-0.1
		c0,0,0.1,0,0.1-0.1c0.1,0,0.1-0.1,0.2-0.1c0,0,0.1-0.1,0.1-0.1c0,0,0.1-0.1,0.1-0.1c0.1-0.1,0.2-0.1,0.3-0.2l74.8-74.8
		c0,0,8.8-8.8,8.8-8.8c3-3,4.6-6.9,4.6-11.1c0-4.2-1.6-8.2-4.6-11.1s-6.9-4.6-11.1-4.6c-4.2,0-8.2,1.6-11.1,4.6l-8.8,8.8
		c0,0-74.8,74.8-74.8,74.8c-0.1,0.1-0.2,0.2-0.2,0.3c0,0-0.1,0.1-0.1,0.1c0,0-0.1,0.1-0.1,0.1c0,0.1-0.1,0.1-0.1,0.2
		c0,0,0,0.1-0.1,0.1c0,0.1-0.1,0.1-0.1,0.2c0,0,0,0.1,0,0.1l0,0c0,0-15.7,37.6-15.7,37.6L224.9,295.9z M281,205.4l12.5,12.5
		l-69.9,69.9l-12.5-12.5L281,205.4z M292.3,194.2c1.7-1.7,3.9-2.6,6.2-2.6c2.4,0,4.6,0.9,6.2,2.6c1.7,1.7,2.6,3.9,2.6,6.2
		c0,2.4-0.9,4.6-2.6,6.2l-6.4,6.4l-12.5-12.5L292.3,194.2L292.3,194.2z M207.4,281.4l10.1,10.1l-17.7,7.6L207.4,281.4z"/>
</g>
</svg>
