<?xml version="1.0" encoding="utf-8"?>
<!-- Generator: Adobe Illustrator 21.1.0, SVG Export Plug-In . SVG Version: 6.00 Build 0)  -->
<svg version="1.1" id="Layer_1" xmlns="http://www.w3.org/2000/svg" xmlns:xlink="http://www.w3.org/1999/xlink" x="0px" y="0px"
	 viewBox="0 0 600 600" style="enable-background:new 0 0 600 600;" xml:space="preserve">
<style type="text/css">
	.st0{fill:#FFFFFF;}
	.st1{fill:#494949;}
	.st2{fill:#FF6464;}
</style>
<g id="calendar_1_">
	<path class="st0" d="M477,10H123C61,10,10,61,10,123v353c0,63,51,114,113,114h353c63,0,114-51,114-113V123C590,61,539,10,477,10z"
		/>
	<path class="st1" d="M477,11c62,0,112,50,112,112v353c0,62-50,112-112,112H123c-62,0-112-50-112-112V123C11,61,61,11,123,11L477,11
		 M477,10H123C61,10,10,61,10,123v353c0,63,51,114,113,114h353c63,0,114-51,114-113V123C590,61,539,10,477,10L477,10z"/>
	<g>
		<g>
			<path class="st2" d="M165,201h-15v-59c0-5,0-11,1-18l0,0c-1,4-2,7-2,9l-27,68h-10l-27-68c-1-2-2-5-2-9l0,0c0,4,1,10,1,18v59H67
				v-91h21l24,61c2,5,3,8,4,10l0,0c2-5,3-8,4-11l24-60h21C165,110,165,201,165,201z"/>
		</g>
		<g>
			<path class="st2" d="M214,203c-10,0-18-3-24-9s-9-14-9-24c0-11,3-19,9-26c6-6,15-9,25-9s18,3,24,9s9,14,9,25c0,10-3,19-9,25
				S225,203,214,203z M215,147c-6,0-10,2-14,6c-3,4-5,10-5,17s2,12,5,16c3,4,8,6,14,6s10-2,13-6c3-4,5-9,5-16s-2-13-5-17
				C225,149,221,147,215,147z"/>
		</g>
		<g>
			<path class="st2" d="M321,201h-15v-37c0-12-4-18-13-18c-4,0-8,2-11,5s-4,8-4,13v37h-15v-65h15v11l0,0c5-8,12-12,21-12
				c7,0,12,2,16,7s6,11,6,20V201z"/>
		</g>
		<g>
			<path class="st2" d="M398,201h-15v-11l0,0c-5,8-12,13-22,13c-8,0-14-3-19-9s-7-14-7-24c0-11,3-19,8-26c5-6,12-10,21-10
				c9,0,15,4,19,11l0,0v-40h15V201z M384,172v-9c0-5-2-9-5-12c-3-3-7-5-11-5c-6,0-10,2-13,6c-3,4-5,10-5,17s2,12,5,16c3,4,7,6,12,6
				s9-2,12-6C382,182,384,177,384,172z"/>
		</g>
		<g>
			<path class="st2" d="M467,201h-14v-10l0,0c-4,8-11,12-20,12c-6,0-11-2-15-5c-4-3-5-8-5-14c0-12,7-19,21-21l19-3c0-9-4-14-13-14
				c-8,0-15,3-21,8v-13c7-4,15-6,24-6c16,0,25,8,25,24v42C468,201,467,201,467,201z M453,170l-14,2c-4,1-7,2-10,3c-2,2-3,4-3,8
				c0,3,1,5,3,7c2,2,5,3,8,3c4,0,8-2,11-5c3-3,4-7,4-12v-6H453z"/>
		</g>
		<g>
			<path class="st2" d="M542,136l-29,75c-6,13-15,20-26,20c-3,0-6,0-8-1v-12c2,1,4,1,6,1c6,0,10-3,12-8l4-11l-26-65h16l15,47
				c0,1,1,2,1,5l0,0c0-1,1-2,1-5l16-47L542,136L542,136z"/>
		</g>
	</g>
	<g>
		<g>
			<path class="st1" d="M283,375c-1,0-1-1,0-2c21-8,34-26,34-49c0-33-29-57-68-57c-34,0-60,18-68,46c-1,4,0,7,2,10c2,3,6,5,9,5
				c5,0,10-4,11-9c5-19,22-31,44-31c27,0,44,15,44,37c0,23-19,39-45,39h-16c-6,0-11,5-11,11c0,6,5,11,11,11h17c33,0,53,16,53,42
				c0,24-22,41-51,41c-26,0-46-13-51-32c-1-5-6-9-12-9c-4,0-7,2-9,5c-2,3-3,7-2,10c8,29,36,48,74,48c43,0,76-27,76-64
				C326,400,310,381,283,375z"/>
			<path class="st1" d="M411,270c-6,0-12,2-17,5c-6,4-15,11-24,17c-9,6-17,12-22,15c-3,2-5,6-5,9c0,4,2,8,6,10c4,2,8,2,11-1
				c9-6,33-23,39-27c1,0,2,0,2,1v177c0,7,5,12,12,12c7,0,12-5,12-12V283C424,276,418,270,411,270z"/>
		</g>
	</g>
</g>
</svg>
