<?xml version="1.0" encoding="utf-8"?>
<!-- Generator: Adobe Illustrator 21.1.0, SVG Export Plug-In . SVG Version: 6.00 Build 0)  -->
<svg version="1.1" id="Layer_1" xmlns="http://www.w3.org/2000/svg" xmlns:xlink="http://www.w3.org/1999/xlink" x="0px" y="0px"
	 viewBox="0 0 600 600" style="enable-background:new 0 0 600 600;" xml:space="preserve">
<style type="text/css">
	.st0{fill:#1ECD97;}
</style>
<g id="course">
	<path d="M561.4,10H410.9c-17,0-30.3,13.3-30.3,30.3v74.1H219.2V40.3c0-17-13.3-30.3-30.3-30.3H39.6C22.7,10,9.3,23.3,9.3,40.3
		v519.3c0,17,13.3,30.3,30.3,30.3h150.4c2.4,0,3.6,0,4.8,0l0,0h209.9l0,0c1.2,0,3.6,0,4.8,0h150.4c17,0,30.3-13.3,30.3-30.3V40.3
		C591.7,23.3,578.4,10,561.4,10z M190.1,565.7H39.6c-2.4,0-4.8-2.4-4.8-4.8V40.3c0-2.4,2.4-4.8,4.8-4.8h150.4c2.4,0,4.8,2.4,4.8,4.8
		v74.1v446.5C195,563.3,192.6,565.7,190.1,565.7z M381.8,565.7H219.2v-4.8V138.6h161.4v422.3v4.8H381.8z M567.4,559.7
		c0,2.4-2.4,4.8-4.8,4.8H410.9c-2.4,0-4.8-2.4-4.8-4.8V114.4V40.3c0-2.4,2.4-4.8,4.8-4.8h150.4c2.4,0,4.8,2.4,4.8,4.8L567.4,559.7
		L567.4,559.7z"/>
	<path d="M245.9,517.1h109.2c7.3,0,12.1-4.8,12.1-12.1l0,0c0-7.3-4.8-12.1-12.1-12.1H245.9c-7.3,0-12.1,4.8-12.1,12.1l0,0
		C233.8,512.3,238.6,517.1,245.9,517.1z"/>
	<path class="st0" d="M245.9,229.7h109.2c7.3,0,12.1-4.8,12.1-12.1l0,0c0-7.3-4.8-12.1-12.1-12.1H245.9c-7.3,0-12.1,4.8-12.1,12.1
		l0,0C233.8,224.7,238.6,229.7,245.9,229.7z"/>
	<path class="st0" d="M436.4,458.9h100.7c7.3,0,12.1-4.8,12.1-12.1l0,0c0-7.3-4.8-12.1-12.1-12.1H436.4c-7.3,0-12.1,4.8-12.1,12.1
		l0,0C424.4,454.1,429.2,458.9,436.4,458.9z"/>
	<path d="M436.4,127.7h100.7c7.3,0,12.1-4.8,12.1-12.1l0,0c0-7.3-4.8-12.1-12.1-12.1H436.4c-7.3,0-12.1,4.8-12.1,12.1l0,0
		C424.4,121.7,429.2,127.7,436.4,127.7z"/>
	<path d="M436.4,503.8h100.7c7.3,0,12.1-4.8,12.1-12.1l0,0c0-7.3-4.8-12.1-12.1-12.1H436.4c-7.3,0-12.1,4.8-12.1,12.1l0,0
		C424.4,499,429.2,503.8,436.4,503.8z"/>
	<path d="M63.9,458.9h100.8c7.3,0,12.1-4.8,12.1-12.1l0,0c0-7.3-4.8-12.1-12.1-12.1H63.9c-7.3,0-12.1,4.8-12.1,12.1l0,0
		C51.8,454.1,56.7,458.9,63.9,458.9z"/>
	<path class="st0" d="M63.9,127.7h100.8c7.3,0,12.1-4.8,12.1-12.1l0,0c0-7.3-4.8-12.1-12.1-12.1H63.9c-7.3,0-12.1,4.8-12.1,12.1l0,0
		C51.8,121.7,56.7,127.7,63.9,127.7z"/>
	<path class="st0" d="M63.9,503.8h100.8c7.3,0,12.1-4.8,12.1-12.1l0,0c0-7.3-4.8-12.1-12.1-12.1H63.9c-7.3,0-12.1,4.8-12.1,12.1l0,0
		C51.8,499,56.7,503.8,63.9,503.8z"/>
</g>
</svg>
