<?xml version="1.0" encoding="utf-8"?>
<!-- Generator: Adobe Illustrator 21.1.0, SVG Export Plug-In . SVG Version: 6.00 Build 0)  -->
<svg version="1.1" id="Layer_1" xmlns="http://www.w3.org/2000/svg" xmlns:xlink="http://www.w3.org/1999/xlink" x="0px" y="0px"
	 viewBox="0 0 600 600" style="enable-background:new 0 0 600 600;" xml:space="preserve">
<style type="text/css">
	.st0{fill:#FFFFFF;}
	.st1{fill:#494949;}
	.st2{fill:#687888;}
	.st3{fill:#1ECD97;}
</style>
<g id="c_x5F_graph">
	<path class="st0" d="M477,10H123C61,10,10,61,10,123v353c0,63,51,114,113,114h353c63,0,114-51,114-113V123C590,61,539,10,477,10z"
		/>
	<path class="st1" d="M477,11c62,0,112,50,112,112v353c0,62-50,112-112,112H123c-62,0-112-50-112-112V123C11,61,61,11,123,11L477,11
		 M477,10H123C61,10,10,61,10,123v353c0,63,51,114,113,114h353c63,0,114-51,114-113V123C590,61,539,10,477,10L477,10z"/>
	<g>
		
			<rect x="78.2" y="375.3" transform="matrix(0.3892 -0.9212 0.9212 0.3892 -256.6303 376.6214)" class="st2" width="155" height="13"/>
	</g>
	<g>
		
			<rect x="235.7" y="289.8" transform="matrix(0.7147 -0.6995 0.6995 0.7147 -160.8517 263.2147)" class="st2" width="13" height="78"/>
	</g>
	<g>
		
			<rect x="295.9" y="326.1" transform="matrix(0.8031 -0.5958 0.5958 0.8031 -131.5562 267.1295)" class="st2" width="85" height="13"/>
	</g>
	<g>
		<rect x="376.2" y="222.1" transform="matrix(0.3964 -0.9181 0.9181 0.3964 45.23 526.0706)" class="st2" width="93" height="13"/>
	</g>
	<g>
		<path class="st2" d="M480,478H118V136c0-4,3-7,7-7s7,3,7,7v328h348c4,0,7,3,7,7C487,475,484,478,480,478z"/>
	</g>
</g>
<path class="st3" d="M451,136c-16,0-29,13-29,29s13,29,29,29c16,0,29-13,29-29S467,136,451,136z"/>
<path class="st3" d="M393,264c-16,0-29,13-29,29s13,29,29,29s29-13,29-29S409,264,393,264z"/>
<path class="st3" d="M286,343c-16,0-29,13-29,29s13,29,29,29s29-13,29-29S302,343,286,343z"/>
<path class="st3" d="M195,259c-16,0-29,13-29,29s13,29,29,29s29-13,29-29S211,259,195,259z"/>
</svg>
