<?xml version="1.0" encoding="utf-8"?>
<!-- Generator: Adobe Illustrator 21.1.0, SVG Export Plug-In . SVG Version: 6.00 Build 0)  -->
<svg version="1.1" id="Layer_1" xmlns="http://www.w3.org/2000/svg" xmlns:xlink="http://www.w3.org/1999/xlink" x="0px" y="0px"
	 viewBox="0 0 600 600" style="enable-background:new 0 0 600 600;" xml:space="preserve">
<style type="text/css">
	.st0{fill:#EDEDED;}
	.st1{fill:#545454;}
	.st2{fill:#4B4D4C;}
	.st3{fill:#E0E1E2;}
</style>
<g id="c_x5F_settings">
	<g id="c_x5F_settings-3_1_">
		<path class="st0" d="M477,10H123C61,10,10,61,10,123v353c0,63,51,114,113,114h353c63,0,114-51,114-113V123C590,61,539,10,477,10z"
			/>
		<circle class="st1" cx="300" cy="300" r="254"/>
		<path class="st2" d="M300,53c33,0,66,7,96,19c29,12,56,30,78,53c22,23,40,49,53,78c13,30,19,63,19,96s-7,66-19,96
			c-12,29-30,56-53,78c-23,23-49,40-78,53c-30,13-63,19-96,19s-66-7-96-19c-29-12-56-30-78-53c-23-23-40-49-53-78
			c-13-30-19-63-19-96s7-66,19-96c12-29,30-56,53-78s49-40,78-53C234,60,267,53,300,53 M300,46C160,46,46,160,46,300
			s114,254,254,254s254-114,254-254S440,46,300,46L300,46z"/>
	</g>
	<g id="settings_x5F_2_3_">
		<path class="st0" d="M500,291l-25-4c-4-1-8-4-8-9l0,0c-1-4,2-9,6-10l23-10c3-1,4-4,3-7l-2-6c-1-3-4-5-7-5l-25,2c-4,0-8-2-10-6l0,0
			c-2-4-1-9,3-11l19-16c2-2,3-5,1-8l-3-6c-2-3-5-4-7-3l-23,9c-4,2-9,0-11-3l0,0c-3-3-3-8,0-12l14-20c2-2,1-6-1-8l-5-5c-2-2-5-2-8-1
			l-20,14c-4,3-8,2-12,0l0,0c-3-3-5-7-3-11l9-23c1-3,0-6-3-7l-5-5c-3-2-6-1-8,1l-16,19c-3,3-7,5-11,3l0,0c-4-2-7-6-6-10l2-25
			c0-3-2-6-5-7h-6c-3-1-6,1-7,3l-10,23c-2,4-6,6-10,6l0,0c-4-1-8-4-9-8l-5-25c-1-3-3-5-6-5h-6c-3,0-6,2-6,5l-4,25c-1,4-4,8-9,8l0,0
			c-4,1-9-2-10-6l-10-23c-1-3-4-4-7-3l-6,2c-3,1-5,4-5,7l2,25c0,4-2,8-6,10l0,0c-4,2-9,1-11-3l-16-19c-3-3-6-4-9-3l-6,3
			c-3,2-4,5-3,7l9,23c2,4,0,9-3,11l0,0c-3,3-8,3-12,0l-20-14c-2-2-6-1-8,1l-5,5c-2,2-2,5-1,8l14,20c3,4,2,8,0,12l0,0c-3,3-7,5-11,3
			l-23-9c-3-1-6,0-7,3l-4,7c-2,3-1,6,1,8l19,16c3,3,5,7,3,11l0,0c-2,4-6,7-10,6l-25-2c-3,0-6,2-7,5v6c-1,3,1,6,3,7l23,10
			c4,2,6,6,6,10l0,0c-1,4-4,8-8,9l-25,5c-3,1-5,3-5,6v3v3c0,3,2,6,5,6l25,4c4,1,8,4,8,9l0,0c1,4-2,9-6,10l-23,10c-3,1-4,4-3,7l2,6
			c1,3,4,5,7,5l25-2c4,0,8,2,10,6l0,0c2,4,1,9-3,11l-19,16c-3,3-4,6-3,9l3,6c2,3,5,4,7,3l23-9c4-2,9,0,11,3l0,0c3,3,3,8,0,12l-14,20
			c-2,2-1,6,1,8l5,5c2,2,5,2,8,1l20-14c4-3,8-2,12,0l0,0c3,3,5,7,3,11l-9,23c-1,3,0,6,3,7l7,4c3,2,6,1,8-1l16-19c3-3,7-5,11-3l0,0
			c4,2,7,6,6,10l-2,25c0,3,2,6,5,7l6,2c3,1,6-1,7-3l10-23c2-4,6-6,10-6l0,0c4,1,8,4,9,8l4,25c1,3,3,5,6,5h6c3,0,6-2,6-5l4-25
			c1-4,4-8,9-8l0,0c4-1,9,2,10,6l10,23c1,3,4,4,7,3l6-2c3-1,5-4,5-7l-2-25c0-4,2-8,6-10l0,0c4-2,9-1,11,3l16,19c2,2,5,3,8,1l6-3
			c3-2,4-5,3-7l-9-23c-2-4,0-9,3-11l0,0c3-3,8-3,12,0l20,14c2,2,6,1,8-1l5-5c2-2,2-5,1-8l-14-20c-3-4-2-8,0-12l0,0c3-3,7-5,11-3
			l23,9c3,1,6,0,7-3l6-7c2-3,1-6-1-8l-19-16c-3-3-5-7-3-11l0,0c2-4,6-7,10-6l25,2c3,0,6-2,7-5l2-6c1-3-1-6-3-7l-23-10c-4-2-6-6-6-10
			l0,0c1-4,4-8,8-9l25-4c3-1,5-3,5-6v-4v-3C505,294,503,291,500,291z M155,271c6-28,20-55,41-75c27-27,64-43,102-43c17,0,34,2,50,8
			c10,3,14,15,9,24l-55,96c-4,7-12,11-20,11H171C160,290,152,281,155,271z M300,292c4,0,8,4,8,8s-4,8-8,8s-8-4-8-8S296,292,300,292z
			 M347,441c-16,5-33,8-50,8c-38-1-75-16-102-43c-21-21-35-47-41-75c-2-10,6-20,16-20h111c8,0,16,4,20,11l55,96
			C361,426,357,437,347,441z M448,301c0,39-16,76-43,104c-2,2-4,4-7,6c-8,7-20,5-25-4l-55-96c-2-4-3-7-3-11s1-8,3-11l55-96
			c5-9,17-11,25-4c2,2,5,4,7,6c28,28,43,65,43,104C448,299,448,300,448,301C448,300,448,301,448,301z"/>
		<path class="st3" d="M220,319h-34v3c0,2,2,3,3,3h13c1,0,1,0,1,1l0,0c0,1,0,1-1,2l-12,7c-1,1-2,2-1,4l1,3c1,2,2,2,4,2l13-2
			c1,0,1,0,2,1l0,0c0,1,0,1,0,2l-10,9c-1,1-2,3-1,4l2,3c1,1,3,2,4,1l13-5c1,0,1,0,2,1l0,0c0,1,0,1,0,2l-9,10c-1,1-1,3,0,4l2,3
			c1,1,3,2,4,1l12-7c1,0,1,0,2,0l0,0c0,0,1,1,0,2l-7,12c-1,1-1,3,1,4l3,2c1,1,3,1,4,0l10-9c1,0,1,0,2,0l0,0c1,0,1,1,1,2l-5,13
			c-1,2,0,3,1,4l3,2c1,1,3,0,4-1l9-10c0-1,1-1,2,0l0,0c1,0,1,1,1,2l-2,13c0,2,1,3,2,4l3,1c2,1,3,0,4-1l7-12c0-1,1-1,2-1l0,0
			c1,0,1,1,1,1v13c0,2,1,3,3,3l3,1c2,0,3-1,4-2l4-13c0-1,1-1,2-1l0,0c1,0,1,1,1,1l2,13c0,2,2,3,3,3h3c2,0,3-1,3-3l2-13c0-1,1-1,1-1
			l0,0c1,0,1,0,2,1l4,13c1,2,2,2,4,2l3-1c2,0,3-2,3-3v-13c0-1,0-1,1-1l0,0c1,0,1,0,2,1l7,12c1,1,2,2,4,1l3-1l-17-29c-7,2-15,4-24,4
			C261,382,229,355,220,319z"/>
		<path class="st3" d="M203,276h-13c-2,0-3,1-3,3v3h33c9-36,41-63,80-63c8,0,16,1,24,4l17-29l-3-1c-2-1-3,0-4,1l-7,12c0,1-1,1-2,1
			l0,0c-1,0-1-1-1-1v-13c0-2-1-3-3-3l-3-1c-2,0-3,1-4,2l-4,10c0,1-1,1-2,1l0,0c-1,0-1-1-1-1l-2-13c0-2-2-3-3-3h-3c-2,0-3,1-3,3
			l-2,13c0,1-1,1-1,1l0,0c-1,0-1,0-2-1l-4-13c-1-2-2-2-4-2l-3,1c-2,0-3,2-3,3v13c0,1,0,1-1,1l0,0c-1,0-1,0-2-1l-7-12c-1-1-2-2-4-1
			l-3,1c-2,1-2,2-2,4l2,13c0,1,0,1-1,2l0,0c-1,0-1,0-2,0l-9-10c-1-1-3-2-4-1l-3,2c-1,1-2,3-1,4l5,13c0,1,0,1-1,2l0,0c-1,0-1,0-2,0
			l-10-9c-1-1-3-1-4,0l-3,2c-1,1-2,3-1,4l7,12c0,1,0,1,0,2l0,0c0,0-1,1-2,0l-12-7c-1-1-3-1-4,1l-2,3c-1,1-1,3,0,4l9,10c0,1,0,1,0,2
			l0,0c0,1-1,1-2,1l-13-5c-2-1-3,0-4,1l-2,3c-1,1,0,3,1,4l10,9c1,0,1,1,0,2l0,0c0,1-1,1-2,1l-13-2c-2,0-3,1-4,2l-1,3c-1,2,0,3,1,4
			l12,7c1,0,1,1,1,2l0,0C205,275,204,276,203,276z"/>
		<path class="st3" d="M376,383l-7-12c0-1,0-1,0-2l0,0c0,0,1-1,2,0l12,7c1,1,3,1,4-1l2-3c1-1,1-3,0-4l-9-10c0-1,0-1,0-2l0,0
			c0-1,1-1,2-1l13,5c2,1,3,0,4-1l2-3c1-1,0-3-1-4l-10-9c-1,0-1-1,0-2l0,0c0-1,1-1,2-1l13,2c2,0,3-1,4-2l1-3c1-2,0-3-1-4l-12-7
			c-1,0-1-1-1-2l0,0c0-1,1-1,1-1h13c2,0,3-1,3-3l1-3c0-2-1-3-2-4l-13-3c-1,0-1-1-1-2l0,0c0-1,1-1,1-1l13-2c2,0,3-2,3-3v-2v-2
			c0-2-1-3-3-3l-13-2c-1,0-1-1-1-1l0,0c0-1,0-1,1-2l13-4c2-1,2-2,2-4l-1-3c0-2-2-3-3-3h-13c-1,0-1,0-1-1l0,0c0-1,0-1,1-2l12-7
			c1-1,2-2,1-4l-1-3c-1-2-2-2-4-2l-13,2c-1,0-1,0-2-1l0,0c0-1,0-1,0-2l10-9c1-1,2-3,1-4l-2-3c-1-1-3-2-4-1l-13,5c-1,0-1,0-2-1l0,0
			c0-1,0-1,0-2l9-10c1-1,1-3,0-4l-2-3c-1-1-3-2-4-1l-12,7c-1,0-1,0-2,0l0,0c0,0-1-1,0-2l7-12c1-1,1-3-1-4l-2-2l-17,30
			c16,15,26,36,26,60s-10,45-26,60l17,29l2-2C377,386,377,384,376,383z"/>
	</g>
</g>
</svg>
