<svg id="Слой_1" data-name="Слой 1" xmlns="http://www.w3.org/2000/svg" viewBox="0 0 128.67 210.67">
  <defs>
    <style>.cls-1{fill:#39414a;}.cls-2{fill:#fff;}</style>
  </defs>
  <title>placemarker1</title>
  <path class="cls-1" d="M119.07,98.13c5.51-9.55,9.6-21.4,9.6-33.8a64.33,64.33,0,1,0-119,33.85L64.42,210.67Z"/>
  <path class="cls-2" d="M45.22,86.33H39.4v-43h5.82v43Z"/>
  <path class="cls-2"
        d="M75.91,82.1a28.64,28.64,0,0,0,3.19-.16,20.43,20.43,0,0,0,2.75-.5,18.74,18.74,0,0,0,2.43-.79q1.14-.47,2.28-1.07V70.1H79.9A1.27,1.27,0,0,1,79,69.77,1.08,1.08,0,0,1,78.64,69v-3.3h13.2v16.5a23.84,23.84,0,0,1-3.37,2,23,23,0,0,1-3.75,1.46,27.26,27.26,0,0,1-4.28.87,40.12,40.12,0,0,1-4.95.29,22.33,22.33,0,0,1-8.58-1.61,19.74,19.74,0,0,1-6.72-4.5,20.43,20.43,0,0,1-4.4-6.95,24.39,24.39,0,0,1-1.57-8.91,25,25,0,0,1,1.54-9A19.28,19.28,0,0,1,67.11,44.45a24.82,24.82,0,0,1,9.11-1.59,28.19,28.19,0,0,1,4.74.38A22.24,22.24,0,0,1,85,44.32,19,19,0,0,1,88.48,46a21.24,21.24,0,0,1,3,2.27L89.8,50.93a1.52,1.52,0,0,1-1.32.81,2.12,2.12,0,0,1-1-.33q-0.75-.42-1.68-1a14.48,14.48,0,0,0-2.27-1.16,18.28,18.28,0,0,0-3.15-.94A20.76,20.76,0,0,0,76,47.9a17.44,17.44,0,0,0-6.57,1.19,13.89,13.89,0,0,0-5,3.39,15,15,0,0,0-3.18,5.34,21,21,0,0,0-1.11,7,21.32,21.32,0,0,0,1.15,7.27,15.35,15.35,0,0,0,3.25,5.42,14,14,0,0,0,5,3.39A16.74,16.74,0,0,0,75.91,82.1Z"/>
</svg>
