<?xml version="1.0" encoding="utf-8"?>
<!-- Generator: Adobe Illustrator 19.0.0, SVG Export Plug-In . SVG Version: 6.00 Build 0)  -->
<svg version="1.1" id="Layer_1" xmlns="http://www.w3.org/2000/svg"  x="0px" y="0px"
	 viewBox="0 0 70 50" style="enable-background:new 0 0 70 50;" xml:space="preserve">
<style type="text/css">
	.st0{fill:#39414A;}
	.st1{fill:none;stroke:#39414A;stroke-width:2;stroke-miterlimit:10;}
</style>
<g id="XMLID_133_">
	<g id="XMLID_13_">
		<path id="XMLID_15_" class="st0" d="M48.1,18.7c-5.5,2.1-10,7.9-10.3,15.2c-0.1,1.5-2,1.5-1.9,0c0.2-4,1.4-7.7,3.5-10.7
			c1.8-2.7,4.1-4.6,6.7-6c2.9-1.5,5.9-1.8,8.9-2.4c3-0.6,6-1.8,8.8-3.5c1.3-0.8,2.3-1.7,3-3.4c0.5-1.4,0.8-3.1,1-4.6
			c0.2-1.5,2.1-0.9,1.8,0.6c-0.5,3.6-1.4,7-4.1,9c-2.6,1.8-5.4,3.1-8.3,3.9C54.1,17.4,51,17.5,48.1,18.7z"/>
	</g>
	<g id="XMLID_14_">
	</g>
</g>
<g id="XMLID_3_">
	<g id="XMLID_10_">
		<path id="XMLID_12_" class="st0" d="M33.8,33.8c0.1,1.5-1.8,1.5-1.9,0c-0.3-7.3-4.9-13-10.3-15.2c-2.9-1.1-6-1.3-9-2.1
			c-2.9-0.8-5.7-2.1-8.3-3.9c-2.8-1.9-3.6-5.3-4.1-9C-0.1,2.3,1.8,1.6,2,3.1c0.2,1.6,0.5,3.2,1,4.6c0.6,1.7,1.7,2.6,3,3.4
			c2.8,1.7,5.7,2.9,8.8,3.5c3,0.6,6.1,0.9,8.9,2.4c2.5,1.3,4.9,3.3,6.7,6C32.4,26.2,33.6,29.9,33.8,33.8z"/>
	</g>
	<g id="XMLID_11_">
	</g>
</g>
<g id="XMLID_127_">
	<g id="XMLID_2_">
		<path id="XMLID_8_" class="st0" d="M31.8,37.5c0-1,6.6-0.9,6.6,0.1L36.1,47c0,0.7-2.2,0.7-2.2,0L31.8,37.5z"/>
	</g>
	<g id="XMLID_7_">
	</g>
</g>
<circle id="XMLID_142_" class="st1" cx="18.6" cy="31.8" r="9.3"/>
<circle id="XMLID_148_" class="st1" cx="51.4" cy="31.8" r="9.3"/>
</svg>
